<svg width="1250" height="405" viewBox="0 0 1250 405" fill="none" xmlns="http://www.w3.org/2000/svg">
<path d="M1223.28 59.9775L1440 57.9451V62.0176L1223.28 59.9775Z" fill="#8F40FF"/>
<path d="M1189.3 69.5549L1440 67.5225V71.595L1189.3 69.5549Z" fill="#8F40FF"/>
<path d="M1155.32 79.05L1440 77.0175V81.09L1155.32 79.05Z" fill="#8F40FF"/>
<path d="M1121.34 88.5526L1440 86.5126V90.5851L1121.34 88.5526Z" fill="#8F40FF"/>
<path d="M1087.36 98.1301L1440 96.0901V100.163L1087.36 98.1301Z" fill="#8F40FF"/>
<path d="M1053.38 107.625L1440 105.585V109.657L1053.38 107.625Z" fill="#8F40FF"/>
<path d="M1019.4 117.12L1440 115.088V119.153L1019.4 117.12Z" fill="#8F40FF"/>
<path d="M985.418 126.615L1440 124.583V128.648L985.418 126.615Z" fill="#8F40FF"/>
<path d="M951.443 136.11L1440 134.078V138.15L951.443 136.11Z" fill="#8F40FF"/>
<path d="M917.46 145.613L1440 143.573V147.645L917.46 145.613Z" fill="#8F40FF"/>
<path d="M883.477 155.108L1440 153.068V157.14L883.477 155.108Z" fill="#8F40FF"/>
<path d="M849.503 164.603L1440 162.57V166.635L849.503 164.603Z" fill="#8F40FF"/>
<path d="M815.52 174.18L1440 172.147V176.212L815.52 174.18Z" fill="#8F40FF"/>
<path d="M781.537 183.675L1440 181.642V185.707L781.537 183.675Z" fill="#8F40FF"/>
<path d="M747.562 193.17L1440 191.138V195.21L747.562 193.17Z" fill="#8F40FF"/>
<path d="M713.58 202.748L1440 200.715V204.788L713.58 202.748Z" fill="#8F40FF"/>
<path d="M679.598 212.242L1440 210.21V214.283L679.598 212.242Z" fill="#8F40FF"/>
<path d="M645.622 221.745L1440 219.705V223.777L645.622 221.745Z" fill="#8F40FF"/>
<path d="M611.64 231.24L1440 229.208V233.273L611.64 231.24Z" fill="#8F40FF"/>
<path d="M577.657 240.735L1440 238.703V242.768L577.657 240.735Z" fill="#8F40FF"/>
<path d="M543.682 250.23L1440 248.198V252.27L543.682 250.23Z" fill="#8F40FF"/>
<path d="M509.7 259.733L1440 257.693V261.765L509.7 259.733Z" fill="#8F40FF"/>
<path d="M475.718 269.227L1440 267.188V271.26L475.718 269.227Z" fill="#8F40FF"/>
<path d="M441.742 278.805L1440 276.765V280.838L441.742 278.805Z" fill="#8F40FF"/>
<path d="M407.76 288.3L1440 286.267V290.332L407.76 288.3Z" fill="#8F40FF"/>
<path d="M373.777 297.795L1440 295.763V299.828L373.777 297.795Z" fill="#8F40FF"/>
<path d="M339.802 307.373L1440 305.34V309.405L339.802 307.373Z" fill="#8F40FF"/>
<path d="M305.82 316.867L1440 314.835V318.908L305.82 316.867Z" fill="#8F40FF"/>
<path d="M271.837 326.362L1440 324.33V328.402L271.837 326.362Z" fill="#8F40FF"/>
<path d="M237.863 335.865L1440 333.825V337.898L237.863 335.865Z" fill="#8F40FF"/>
<path d="M203.88 345.36L1440 343.32V347.393L203.88 345.36Z" fill="#8F40FF"/>
<path d="M169.897 354.938L1440 352.898V356.97L169.897 354.938Z" fill="#8F40FF"/>
<path d="M135.922 364.433L1440 362.4V366.465L135.922 364.433Z" fill="#8F40FF"/>
<path d="M101.94 373.928L1440 371.895V375.96L101.94 373.928Z" fill="#8F40FF"/>
<path d="M67.9575 383.505L1440 381.473V385.538L67.9575 383.505Z" fill="#8F40FF"/>
<path d="M33.9825 393L1440 390.968V395.04L33.9825 393Z" fill="#8F40FF"/>
<path d="M0 402.495L1440 400.462V404.535L0 402.495Z" fill="#8F40FF"/>
</svg>
